<mxfile host="app.diagrams.net" modified="2021-04-06T08:23:01.447Z" agent="5.0 (Windows)" etag="rco_EVHFC6KtqucQi0mS" version="14.1.2" type="github">
  <diagram id="W_Dj9nNZkwWLm2G_5nTP" name="Page-1">
    <mxGraphModel dx="972" dy="523" grid="1" gridSize="10" guides="1" tooltips="1" connect="1" arrows="1" fold="1" page="1" pageScale="1" pageWidth="827" pageHeight="1169" math="0" shadow="0">
      <root>
        <mxCell id="0" />
        <mxCell id="1" parent="0" />
        <mxCell id="OQnmP0kCRPwSxv2MxFwa-1" value="新增变更身份" style="swimlane;html=1;childLayout=stackLayout;resizeParent=1;resizeParentMax=0;startSize=20;" vertex="1" parent="1">
          <mxGeometry x="250" y="150" width="340" height="540" as="geometry" />
        </mxCell>
        <mxCell id="OQnmP0kCRPwSxv2MxFwa-2" value="APP端" style="swimlane;html=1;startSize=20;" vertex="1" parent="OQnmP0kCRPwSxv2MxFwa-1">
          <mxGeometry y="20" width="120" height="520" as="geometry" />
        </mxCell>
        <mxCell id="OQnmP0kCRPwSxv2MxFwa-3" value="风控侧" style="swimlane;html=1;startSize=20;" vertex="1" parent="OQnmP0kCRPwSxv2MxFwa-1">
          <mxGeometry x="120" y="20" width="110" height="520" as="geometry" />
        </mxCell>
        <mxCell id="OQnmP0kCRPwSxv2MxFwa-4" value="平台后端" style="swimlane;html=1;startSize=20;" vertex="1" parent="OQnmP0kCRPwSxv2MxFwa-1">
          <mxGeometry x="230" y="20" width="110" height="520" as="geometry" />
        </mxCell>
        <mxCell id="OQnmP0kCRPwSxv2MxFwa-6" value="用户侧" style="ellipse;whiteSpace=wrap;html=1;" vertex="1" parent="1">
          <mxGeometry x="80" y="850" width="100" height="70" as="geometry" />
        </mxCell>
        <mxCell id="OQnmP0kCRPwSxv2MxFwa-10" style="edgeStyle=orthogonalEdgeStyle;rounded=0;orthogonalLoop=1;jettySize=auto;html=1;exitX=1;exitY=0.5;exitDx=0;exitDy=0;" edge="1" parent="1" source="OQnmP0kCRPwSxv2MxFwa-7" target="OQnmP0kCRPwSxv2MxFwa-9">
          <mxGeometry relative="1" as="geometry" />
        </mxCell>
        <mxCell id="OQnmP0kCRPwSxv2MxFwa-7" value="变更身份" style="rounded=0;whiteSpace=wrap;html=1;" vertex="1" parent="1">
          <mxGeometry x="240" y="800" width="90" height="50" as="geometry" />
        </mxCell>
        <mxCell id="OQnmP0kCRPwSxv2MxFwa-12" style="edgeStyle=orthogonalEdgeStyle;rounded=0;orthogonalLoop=1;jettySize=auto;html=1;entryX=0;entryY=0.5;entryDx=0;entryDy=0;" edge="1" parent="1" source="OQnmP0kCRPwSxv2MxFwa-9" target="OQnmP0kCRPwSxv2MxFwa-11">
          <mxGeometry relative="1" as="geometry" />
        </mxCell>
        <mxCell id="OQnmP0kCRPwSxv2MxFwa-9" value="更新信息" style="rounded=0;whiteSpace=wrap;html=1;" vertex="1" parent="1">
          <mxGeometry x="375" y="800" width="90" height="50" as="geometry" />
        </mxCell>
        <mxCell id="OQnmP0kCRPwSxv2MxFwa-14" style="edgeStyle=orthogonalEdgeStyle;rounded=0;orthogonalLoop=1;jettySize=auto;html=1;entryX=0;entryY=0.5;entryDx=0;entryDy=0;" edge="1" parent="1" source="OQnmP0kCRPwSxv2MxFwa-11" target="OQnmP0kCRPwSxv2MxFwa-13">
          <mxGeometry relative="1" as="geometry" />
        </mxCell>
        <mxCell id="OQnmP0kCRPwSxv2MxFwa-11" value="填写学籍信息及证明材料" style="rounded=0;whiteSpace=wrap;html=1;" vertex="1" parent="1">
          <mxGeometry x="520" y="800" width="90" height="50" as="geometry" />
        </mxCell>
        <mxCell id="OQnmP0kCRPwSxv2MxFwa-16" style="edgeStyle=orthogonalEdgeStyle;rounded=0;orthogonalLoop=1;jettySize=auto;html=1;" edge="1" parent="1" source="OQnmP0kCRPwSxv2MxFwa-13" target="OQnmP0kCRPwSxv2MxFwa-15">
          <mxGeometry relative="1" as="geometry">
            <Array as="points">
              <mxPoint x="715" y="890" />
              <mxPoint x="285" y="890" />
            </Array>
          </mxGeometry>
        </mxCell>
        <mxCell id="OQnmP0kCRPwSxv2MxFwa-13" value="提交申请" style="rounded=0;whiteSpace=wrap;html=1;" vertex="1" parent="1">
          <mxGeometry x="670" y="800" width="90" height="50" as="geometry" />
        </mxCell>
        <mxCell id="OQnmP0kCRPwSxv2MxFwa-18" style="edgeStyle=orthogonalEdgeStyle;rounded=0;orthogonalLoop=1;jettySize=auto;html=1;entryX=0;entryY=0.5;entryDx=0;entryDy=0;" edge="1" parent="1" source="OQnmP0kCRPwSxv2MxFwa-15" target="OQnmP0kCRPwSxv2MxFwa-17">
          <mxGeometry relative="1" as="geometry">
            <mxPoint x="370" y="945" as="targetPoint" />
          </mxGeometry>
        </mxCell>
        <mxCell id="OQnmP0kCRPwSxv2MxFwa-15" value="审核成功" style="rounded=0;whiteSpace=wrap;html=1;" vertex="1" parent="1">
          <mxGeometry x="240" y="920" width="90" height="50" as="geometry" />
        </mxCell>
        <mxCell id="OQnmP0kCRPwSxv2MxFwa-17" value="恢复借款服务" style="rounded=0;whiteSpace=wrap;html=1;" vertex="1" parent="1">
          <mxGeometry x="375" y="920" width="90" height="50" as="geometry" />
        </mxCell>
      </root>
    </mxGraphModel>
  </diagram>
</mxfile>
